<mxfile host="app.diagrams.net" modified="2023-10-14T19:46:55.231Z" agent="Mozilla/5.0 (X11; Ubuntu; Linux x86_64; rv:109.0) Gecko/20100101 Firefox/118.0" version="22.0.4" etag="vxVGrC8htAnBwhIpQywC" type="github">
  <diagram name="Page-1" id="KTluXiBCpoUPqwVhIC1b">
    <mxGraphModel>
      <root>
        <mxCell id="0" />
        <mxCell id="1" parent="0" />
      </root>
    </mxGraphModel>
  </diagram>
</mxfile>
